<svg width="470" height="162" viewBox="0 0 470 162" fill="none" xmlns="http://www.w3.org/2000/svg">
<path d="M39.33 161.997C24.1012 161.997 10.9912 157.226 0 147.683L12.7127 129.336C20.6582 136.997 29.5968 140.828 39.5286 140.828C43.2365 140.828 46.1498 140.089 48.2686 138.61C50.3874 137.132 51.4468 135.183 51.4468 132.763C51.4468 130.613 50.1888 128.798 47.6727 127.32C45.1567 125.841 40.5218 124.027 33.7682 121.876C24.3661 118.65 17.0165 114.685 11.7195 109.981C6.555 105.142 3.97273 98.4219 3.97273 89.8198C3.97273 81.0832 7.28333 74.0267 13.9045 68.6504C20.5258 63.1397 28.8685 60.3843 38.9327 60.3843C52.1751 60.3843 63.9609 64.4837 74.29 72.6827L61.7759 92.0375C54.4926 85.0483 46.7457 81.5536 38.5354 81.5536C36.1518 81.5536 33.9668 82.2257 31.9804 83.5698C29.9941 84.7795 29.0009 86.594 29.0009 89.0133C29.0009 90.8951 30.1265 92.6423 32.3777 94.2553C34.7614 95.7337 38.5354 97.4811 43.7 99.4972C48.997 101.513 52.9035 103.059 55.4195 104.134C57.9356 105.075 60.9151 106.554 64.3582 108.57C67.8012 110.451 70.1848 112.333 71.5091 114.215C72.9657 115.962 74.2238 118.314 75.2832 121.271C76.475 124.228 77.0709 127.589 77.0709 131.352C77.0709 140.492 73.8265 147.884 67.3377 153.529C60.9813 159.175 51.6454 161.997 39.33 161.997Z" fill="white"/>
<path d="M122.209 161.997C113.602 161.997 106.848 159.242 101.949 153.731C97.0488 148.22 94.599 140.089 94.599 129.336V83.7714V61.9972V29.4472L120.422 26.9972V61.9972H146.84V83.7714H120.422V125.707C120.422 134.04 123.269 138.207 128.963 138.207C132.671 138.207 136.776 137.064 141.279 134.779L148.032 155.949C140.616 159.981 132.009 161.997 122.209 161.997Z" fill="white"/>
<path d="M231.174 61.9972H256.997V160.384H232.366V148.489H231.77C225.016 157.494 215.349 161.997 202.769 161.997C189.262 161.997 178.138 157.36 169.398 148.086C160.79 138.677 156.487 126.446 156.487 111.392C156.487 96.6074 160.79 84.4434 169.398 74.9004C178.138 65.223 189.063 60.3843 202.173 60.3843C214.224 60.3843 223.692 64.6181 230.578 73.0859H231.174V61.9972ZM207.536 138.408C214.422 138.408 220.249 135.922 225.016 130.949C229.783 125.976 232.167 119.524 232.167 111.594C232.167 103.664 229.85 97.0778 225.215 91.8359C220.58 86.594 214.753 83.973 207.735 83.973C200.584 83.973 194.625 86.5268 189.858 91.6343C185.09 96.6074 182.707 103.261 182.707 111.594C182.707 119.524 185.024 125.976 189.659 130.949C194.294 135.922 200.253 138.408 207.536 138.408Z" fill="white"/>
<path d="M322.199 161.997C307.632 161.997 295.648 157.293 286.246 147.884C276.976 138.476 272.341 126.244 272.341 111.191C272.341 96.137 277.042 83.9058 286.444 74.4972C295.979 65.0886 308.294 60.3843 323.391 60.3843C331.469 60.3843 339.149 61.9972 346.433 65.223C353.716 68.4488 359.741 73.0859 364.509 79.1343L347.029 94.4569C341.069 87.4676 333.521 83.973 324.384 83.973C316.703 83.973 310.479 86.5268 305.712 91.6343C300.945 96.6074 298.561 103.059 298.561 110.989C298.561 119.054 300.945 125.64 305.712 130.747C310.612 135.855 316.902 138.408 324.583 138.408C333.852 138.408 341.401 135.048 347.227 128.328L364.906 144.255C360.403 149.497 354.444 153.798 347.029 157.158C339.745 160.384 331.469 161.997 322.199 161.997Z" fill="white"/>
<path d="M417.957 121.271H417.56L404.053 136.796V160.384H378.031V2.74741L404.053 0.268372V101.715H404.251L439.013 61.9972H469.404L435.239 101.11L470 160.384H440.999L417.957 121.271Z" fill="white"/>
</svg>
