<svg width="94" height="33" viewBox="0 0 94 33" fill="none" xmlns="http://www.w3.org/2000/svg">
<path d="M7.866 32.3458C4.82024 32.3458 2.19824 31.3915 0 29.4829L2.54255 25.8135C4.13164 27.3458 5.91936 28.1119 7.90573 28.1119C8.6473 28.1119 9.22997 27.964 9.65373 27.6683C10.0775 27.3726 10.2894 26.9829 10.2894 26.499C10.2894 26.0689 10.0378 25.706 9.53454 25.4103C9.03133 25.1146 8.10436 24.7517 6.75363 24.3216C4.87321 23.6764 3.4033 22.8834 2.34391 21.9425C1.311 20.9748 0.794545 19.6307 0.794545 17.9103C0.794545 16.163 1.45667 14.7517 2.78091 13.6764C4.10515 12.5743 5.7737 12.0232 7.78654 12.0232C10.435 12.0232 12.7922 12.8431 14.858 14.4829L12.3552 18.3538C10.8985 16.956 9.34915 16.2571 7.70709 16.2571C7.23036 16.2571 6.79336 16.3915 6.39609 16.6603C5.99882 16.9022 5.80018 17.2651 5.80018 17.749C5.80018 18.1253 6.0253 18.4748 6.47554 18.7974C6.95227 19.0931 7.70709 19.4425 8.74 19.8458C9.79939 20.249 10.5807 20.5581 11.0839 20.7732C11.5871 20.9614 12.183 21.2571 12.8716 21.6603C13.5602 22.0366 14.037 22.413 14.3018 22.7893C14.5931 23.1388 14.8448 23.6092 15.0566 24.2006C15.295 24.792 15.4142 25.464 15.4142 26.2167C15.4142 28.0447 14.7653 29.5232 13.4675 30.6522C12.1963 31.7812 10.3291 32.3458 7.866 32.3458Z" fill="#5B8FE7"/>
<path d="M24.4419 32.3458C22.7204 32.3458 21.3696 31.7947 20.3897 30.6925C19.4098 29.5904 18.9198 27.964 18.9198 25.8135V16.7006V12.3458V5.83576L24.0843 5.34576V12.3458H29.3681V16.7006H24.0843V25.0877C24.0843 26.7544 24.6538 27.5877 25.7926 27.5877C26.5342 27.5877 27.3552 27.3592 28.2557 26.9022L29.6064 31.1361C28.1233 31.9425 26.4018 32.3458 24.4419 32.3458Z" fill="#5B8FE7"/>
<path d="M46.2348 12.3458H51.3993V32.0232H46.4731V29.6441H46.354C45.0032 31.4452 43.0698 32.3458 40.5538 32.3458C37.8523 32.3458 35.6276 31.4183 33.8796 29.5635C32.1581 27.6818 31.2973 25.2355 31.2973 22.2248C31.2973 19.2678 32.1581 16.835 33.8796 14.9264C35.6276 12.9909 37.8126 12.0232 40.4346 12.0232C42.8447 12.0232 44.7384 12.87 46.1156 14.5635H46.2348V12.3458ZM41.5072 27.628C42.8844 27.628 44.0498 27.1307 45.0032 26.1361C45.9567 25.1415 46.4334 23.8511 46.4334 22.2651C46.4334 20.6791 45.9699 19.3619 45.043 18.3135C44.116 17.2651 42.9507 16.7409 41.547 16.7409C40.1168 16.7409 38.925 17.2517 37.9715 18.2732C37.0181 19.2678 36.5413 20.5985 36.5413 22.2651C36.5413 23.8511 37.0048 25.1415 37.9318 26.1361C38.8587 27.1307 40.0506 27.628 41.5072 27.628Z" fill="#5B8FE7"/>
<path d="M64.4398 32.3458C61.5265 32.3458 59.1296 31.4049 57.2492 29.5232C55.3952 27.6415 54.4683 25.1952 54.4683 22.1845C54.4683 19.1737 55.4085 16.7275 57.2889 14.8458C59.1958 12.964 61.6589 12.0232 64.6782 12.0232C66.2937 12.0232 67.8299 12.3458 69.2865 12.9909C70.7432 13.6361 71.9483 14.5635 72.9017 15.7732L69.4057 18.8377C68.2139 17.4398 66.7043 16.7409 64.8768 16.7409C63.3407 16.7409 62.0959 17.2517 61.1424 18.2732C60.189 19.2678 59.7123 20.5581 59.7123 22.1442C59.7123 23.7571 60.189 25.0743 61.1424 26.0958C62.1224 27.1173 63.3804 27.628 64.9165 27.628C66.7705 27.628 68.2801 26.956 69.4454 25.6119L72.9812 28.7974C72.0807 29.8458 70.8889 30.706 69.4057 31.378C67.9491 32.0232 66.2937 32.3458 64.4398 32.3458Z" fill="#5B8FE7"/>
<path d="M83.5915 24.2006H83.512L80.8105 27.3054V32.0232H75.6063V0.495807L80.8105 0V20.2893H80.8503L87.8025 12.3458H93.8808L87.0477 20.1683L94 32.0232H88.1998L83.5915 24.2006Z" fill="#5B8FE7"/>
</svg>
